<?xml version="1.0" standalone="no"?>
<!DOCTYPE svg PUBLIC "-//W3C//DTD SVG 20010904//EN"
 "http://www.w3.org/TR/2001/REC-SVG-20010904/DTD/svg10.dtd">
<svg version="1.0" xmlns="http://www.w3.org/2000/svg"
 width="700.000000pt" height="700.000000pt" viewBox="0 0 700.000000 700.000000"
 preserveAspectRatio="xMidYMid meet">
<metadata>
Created by potrace 1.14, written by Peter Selinger 2001-2017
</metadata>
<g transform="translate(0.000000,700.000000) scale(0.100000,-0.100000)"
fill="#000000" stroke="none">
<path d="M3015 6554 c-241 -29 -458 -79 -660 -151 -416 -151 -774 -391 -1042
-701 -32 -37 -60 -69 -63 -72 -12 -12 -90 -122 -135 -190 -54 -82 -138 -243
-173 -330 -27 -68 -54 -145 -49 -139 3 2 42 51 88 109 158 199 415 439 634
592 251 175 560 317 855 393 3 1 25 5 50 10 25 5 47 9 50 10 19 4 156 27 210
34 68 9 427 7 493 -4 21 -3 73 -13 115 -21 42 -8 88 -17 102 -20 109 -22 395
-139 515 -212 326 -196 584 -477 754 -820 110 -222 175 -426 220 -697 35 -213
36 -600 1 -805 -5 -30 -11 -72 -14 -92 -3 -20 -15 -79 -26 -130 -97 -434 -288
-845 -562 -1209 -116 -154 -137 -178 -288 -330 -260 -261 -562 -470 -878 -605
-23 -10 -39 -21 -34 -26 9 -9 261 -72 372 -92 217 -40 338 -50 585 -51 212 0
380 10 475 30 14 2 41 7 60 10 19 3 58 10 85 15 28 6 59 12 70 14 279 54 661
218 915 394 342 235 615 552 788 912 77 162 165 424 186 560 3 19 8 44 10 56
6 29 16 114 26 204 7 73 4 421 -4 470 -2 14 -7 48 -10 75 -6 47 -9 65 -21 125
-2 14 -7 41 -10 60 -38 233 -174 596 -323 863 -41 76 -196 317 -227 355 -266
330 -438 503 -690 693 -55 42 -127 93 -160 115 -33 21 -62 41 -65 44 -17 20
-241 144 -385 215 -280 138 -605 247 -885 298 -90 17 -137 24 -206 32 -33 4
-70 9 -84 12 -62 13 -549 10 -665 -3z"/>
<path d="M2859 5886 c-2 -2 -38 -7 -79 -11 -311 -27 -713 -169 -1027 -360
-336 -206 -606 -451 -887 -805 -32 -41 -148 -215 -193 -290 -212 -356 -361
-773 -409 -1145 -3 -27 -8 -59 -11 -70 -13 -51 -10 -465 3 -565 48 -355 169
-673 347 -909 55 -73 147 -175 152 -169 2 2 -11 36 -30 75 -121 257 -197 546
-231 868 -7 74 -8 326 0 418 51 625 359 1182 821 1483 181 118 351 184 585
229 39 8 189 19 255 19 375 1 776 -152 1112 -423 76 -60 235 -216 291 -284
297 -361 487 -783 558 -1241 3 -21 8 -48 10 -60 9 -42 18 -204 18 -318 1 -94
3 -114 14 -106 7 6 58 79 113 162 214 322 383 722 454 1071 8 39 17 81 20 95
39 178 50 613 20 770 -3 13 -7 42 -10 65 -4 22 -15 78 -26 125 -145 623 -541
1082 -1100 1278 -83 29 -269 74 -359 87 -51 7 -405 16 -411 11z"/>
<path d="M2030 4417 c-3 -3 -34 -7 -70 -11 -124 -11 -312 -67 -445 -131 -61
-29 -185 -103 -220 -132 -174 -140 -276 -255 -377 -423 -109 -182 -204 -444
-233 -645 -3 -23 -8 -52 -10 -65 -10 -49 -18 -188 -18 -305 -1 -110 10 -302
18 -315 1 -3 5 -28 9 -57 11 -93 64 -317 93 -393 3 -8 7 -19 9 -25 11 -48 77
-204 130 -311 188 -382 480 -712 814 -918 371 -230 779 -311 1165 -231 128 27
285 87 396 152 63 36 195 133 249 183 l35 31 -45 -26 c-128 -74 -354 -172
-436 -190 -10 -2 -50 -10 -89 -19 -70 -15 -299 -17 -355 -2 -14 3 -37 8 -52
11 -45 8 -169 55 -240 91 -198 100 -489 350 -622 537 -90 126 -169 317 -195
472 -25 149 -30 271 -18 420 11 127 17 162 48 294 198 818 869 1476 1588 1555
68 8 70 3 -39 97 -193 167 -467 297 -705 335 -20 3 -47 8 -59 10 -28 7 -321
16 -326 11z"/>
</g>
</svg>
